HIERARCHY
ROOT hip
{
  OFFSET 0 0 0
  CHANNELS 6 Xposition Yposition Zposition Zrotation Yrotation Xrotation
  JOINT abdomen
  {
    OFFSET 0 20.6881 -0.73152
    CHANNELS 3 Zrotation Xrotation Yrotation
    JOINT chest
    {
      OFFSET 0 11.7043 -0.48768
      CHANNELS 3 Zrotation Xrotation Yrotation
      JOINT neck
      {
        OFFSET 0 22.1894 -2.19456
        CHANNELS 3 Zrotation Xrotation Yrotation
        JOINT head
        {
          OFFSET -0.24384 7.07133 1.2192
          CHANNELS 3 Zrotation Xrotation Yrotation
          JOINT leftEye
          {
            OFFSET 4.14528 8.04674 8.04672
            CHANNELS 3 Zrotation Xrotation Yrotation
            End Site
            {
              OFFSET 1 0 0
            }
          }
          JOINT rightEye
          {
            OFFSET -3.6576 8.04674 8.04672
            CHANNELS 3 Zrotation Xrotation Yrotation
            End Site
            {
              OFFSET 1 0 0
            }
          }
        }
      }
      JOINT rCollar
      {
        OFFSET -2.68224 19.2634 -4.8768
        CHANNELS 3 Zrotation Xrotation Yrotation
        JOINT rShldr
        {
          OFFSET -8.77824 -1.95073 1.46304
          CHANNELS 3 Zrotation Xrotation Yrotation
          JOINT rForeArm
          {
            OFFSET -28.1742 -1.7115 0.48768
            CHANNELS 3 Zrotation Xrotation Yrotation
            JOINT rHand
            {
              OFFSET -22.5879 0.773209 7.07136
              CHANNELS 3 Zrotation Xrotation Yrotation
              JOINT rThumb1
              {
                OFFSET -1.2192 -0.487915 3.41376
                CHANNELS 3 Zrotation Xrotation Yrotation
                JOINT rThumb2
                {
                  OFFSET -3.37035 -0.52449 3.41376
                  CHANNELS 3 Zrotation Xrotation Yrotation
                  End Site
                  {
                    OFFSET -1.78271 -1.18214 1.43049
                  }
                }
              }
              JOINT rIndex1
              {
                OFFSET -7.75947 0.938293 5.60832
                CHANNELS 3 Zrotation Xrotation Yrotation
                JOINT rIndex2
                {
                  OFFSET -2.54057 -0.884171 1.56538
                  CHANNELS 3 Zrotation Xrotation Yrotation
                  End Site
                  {
                    OFFSET -1.62519 -0.234802 1.16502
                  }
                }
              }
              JOINT rMid1
              {
                OFFSET -8.24714 1.18213 3.41376
                CHANNELS 3 Zrotation Xrotation Yrotation
                JOINT rMid2
                {
                  OFFSET -3.10165 -0.590103 1.0647
                  CHANNELS 3 Zrotation Xrotation Yrotation
                  End Site
                  {
                    OFFSET -2.48547 -0.328903 0.83742
                  }
                }
              }
              JOINT rRing1
              {
                OFFSET -8.82822 0.546677 1.51678
                CHANNELS 3 Zrotation Xrotation Yrotation
                JOINT rRing2
                {
                  OFFSET -2.60934 -0.819778 -0.0198488
                  CHANNELS 3 Zrotation Xrotation Yrotation
                  End Site
                  {
                    OFFSET -2.33842 -0.294052 0.168128
                  }
                }
              }
              JOINT rPinky1
              {
                OFFSET -8.27202 -0.0477905 -0.4584
                CHANNELS 3 Zrotation Xrotation Yrotation
                JOINT rPinky2
                {
                  OFFSET -1.82734 -0.647385 -0.700984
                  CHANNELS 3 Zrotation Xrotation Yrotation
                  End Site
                  {
                    OFFSET -1.69225 -0.51767 -0.607171
                  }
                }
              }
            }
          }
        }
      }
      JOINT lCollar
      {
        OFFSET 2.68224 19.2634 -4.8768
        CHANNELS 3 Zrotation Xrotation Yrotation
        JOINT lShldr
        {
          OFFSET 8.77824 -1.95073 1.46304
          CHANNELS 3 Zrotation Xrotation Yrotation
          JOINT lForeArm
          {
            OFFSET 28.1742 -1.7115 0.48768
            CHANNELS 3 Zrotation Xrotation Yrotation
            JOINT lHand
            {
              OFFSET 22.5879 0.773209 7.07136
              CHANNELS 3 Zrotation Xrotation Yrotation
              JOINT lThumb1
              {
                OFFSET 1.2192 -0.487915 3.41376
                CHANNELS 3 Zrotation Xrotation Yrotation
                JOINT lThumb2
                {
                  OFFSET 3.37035 -0.52449 3.41376
                  CHANNELS 3 Zrotation Xrotation Yrotation
                  End Site
                  {
                    OFFSET 1.78271 -1.18214 1.43049
                  }
                }
              }
              JOINT lIndex1
              {
                OFFSET 7.75947 0.938293 5.60832
                CHANNELS 3 Zrotation Xrotation Yrotation
                JOINT lIndex2
                {
                  OFFSET 2.54057 -0.884171 1.56538
                  CHANNELS 3 Zrotation Xrotation Yrotation
                  End Site
                  {
                    OFFSET 1.62519 -0.234802 1.16502
                  }
                }
              }
              JOINT lMid1
              {
                OFFSET 8.24714 1.18213 3.41376
                CHANNELS 3 Zrotation Xrotation Yrotation
                JOINT lMid2
                {
                  OFFSET 3.10165 -0.590103 1.0647
                  CHANNELS 3 Zrotation Xrotation Yrotation
                  End Site
                  {
                    OFFSET 2.48547 -0.328903 0.83742
                  }
                }
              }
              JOINT lRing1
              {
                OFFSET 8.82822 0.546677 1.51678
                CHANNELS 3 Zrotation Xrotation Yrotation
                JOINT lRing2
                {
                  OFFSET 2.60934 -0.819778 -0.0198488
                  CHANNELS 3 Zrotation Xrotation Yrotation
                  End Site
                  {
                    OFFSET 2.33842 -0.294052 0.168128
                  }
                }
              }
              JOINT lPinky1
              {
                OFFSET 8.27202 -0.0477905 -0.4584
                CHANNELS 3 Zrotation Xrotation Yrotation
                JOINT lPinky2
                {
                  OFFSET 1.82734 -0.647385 -0.700984
                  CHANNELS 3 Zrotation Xrotation Yrotation
                  End Site
                  {
                    OFFSET 1.69225 -0.51767 -0.607171
                  }
                }
              }
            }
          }
        }
      }
    }
  }
  JOINT rButtock
  {
    OFFSET -8.77824 4.35084 1.2192
    CHANNELS 3 Zrotation Xrotation Yrotation
    JOINT rThigh
    {
      OFFSET 0 -1.70687 -2.19456
      CHANNELS 3 Zrotation Xrotation Yrotation
      JOINT rShin
      {
        OFFSET 0 -36.8199 0.73152
        CHANNELS 3 Zrotation Xrotation Yrotation
        JOINT rFoot
        {
          OFFSET 0.73152 -45.1104 -5.12064
          CHANNELS 3 Zrotation Xrotation Yrotation
          End Site
          {
            OFFSET -1.1221 -3.69964 12.103
          }
        }
      }
    }
  }
  JOINT lButtock
  {
    OFFSET 8.77824 4.35084 1.2192
    CHANNELS 3 Zrotation Xrotation Yrotation
    JOINT lThigh
    {
      OFFSET 0 -1.70687 -2.19456
      CHANNELS 3 Zrotation Xrotation Yrotation
      JOINT lShin
      {
        OFFSET 0 -36.8199 0.73152
        CHANNELS 3 Zrotation Xrotation Yrotation
        JOINT lFoot
        {
          OFFSET -0.73152 -45.1104 -5.12064
          CHANNELS 3 Zrotation Xrotation Yrotation
          End Site
          {
            OFFSET 1.1221 -3.69964 12.103
          }
        }
      }
    }
  }
}
MOTION
Frames:	7
Frame Time:	0.03333
-15.2864 55.2141 -15.5042 -4.183123 77.041992 0.105885 -4.961966 12.262636 -0.0 3.972242 -13.148225 -1.873934 13.099319 25.453088 122.248549 -29.255169 22.367804 -94.906838 9.450787 -0.320311 -3.873516 4.650314 -0.472628 -11.600232 3.348991 -34.072433 -9.165173 -98.048225 -25.179699 -104.137774 -83.345789 30.508927 -101.097992 -167.766816 -39.014316 159.621813 -0.934814 0.123466 1.504103 -134.613098 -44.788265 126.524271 -27.095306 30.140385 20.665412 -170.598776 -41.52297 104.231684 -40.305334 53.656625 31.584803 -164.304311 -4.701619 142.544288 -71.286976 72.115769 87.423817 2.516989 0.383101 -0.944771 10.335769 49.412846 5.332717 10.894685 13.807013 16.818274 160.019451 -30.594584 -164.405545 134.824346 18.460324 141.446826 129.539851 -78.113565 59.546085 8.364952 -49.224447 11.994446 154.096968 10.592979 -85.144349 30.027056 -32.870549 -9.370417 0.618913 1.06535 3.639688 84.796668 40.045406 -62.604461 111.052322 54.780059 -95.761845 -5.768334 0.495672 -17.387405 3.292572 -1.613595 -1.238746 -18.81701 1.238779 -3.08876 132.637891 -5.721586 138.447653 129.355852 25.892651 161.05226 0.079107 -0.885341 5.106142 -52.443009 -50.31438 -45.692469 -128.271622 84.24129 159.296871 -69.682194 11.706981 -19.171871 -3.471272 -1.498422 -1.712297 63.873781 -42.635183 55.092651 119.560711 79.256497 -68.386548 100.933917 -55.639452 17.271157
-15.3459 54.706999999999994 -15.3728 -3.737435 76.801202 0.628924 -4.907091 12.345797 -0.0 3.968225 -13.226882 -1.843775 -5.855464 16.245801 -44.171315 29.055566 -8.512731 69.30438 10.121336 -0.437465 -4.936965 4.792427 -0.475927 -11.336188 -150.927412 18.202232 158.39221 1.009596 -15.937847 73.167254 -41.033984 69.453841 -97.453353 -149.331725 21.100712 135.166251 177.976517 -18.558208 87.550446 -87.602447 9.537851 27.91722 170.065016 -66.10767 108.975107 18.76757 -36.644785 -11.659662 -127.817193 50.870517 116.226877 -12.90331 35.593819 8.966033 -1.543047 -0.4264 0.168228 -152.014935 -2.536275 167.887976 -104.613949 -43.571797 -92.418122 -147.044866 8.281442 -125.419355 -5.869097 -43.511049 5.524114 -57.426366 3.574807 -52.636167 6.765716 -12.891381 -72.360079 8.066786 -49.471588 11.892203 92.10765 37.171008 -49.610065 -23.123817 -32.680428 -27.825046 119.897925 31.075116 -102.153189 166.968149 -8.55172 -123.185494 161.133276 6.358739 -137.990142 11.597455 -2.201207 -9.374089 148.15686 4.771745 -177.85909 168.446551 34.298711 179.210121 -9.00683 7.680889 -6.416338 136.066882 -30.564305 108.226799 -16.705991 -0.534225 -8.143604 -22.944179 -58.499741 -20.08354 -169.222452 75.33074 48.115151 9.379463 69.186747 117.131113 174.30313 77.199439 3.060535 -140.04438 6.865544 87.105407 106.395131 -2.84567 114.177592 92.172539 4.850637 148.725971
-15.3808 54.137100000000004 -15.2636 -3.769037 76.997067 0.48002 -2.729975 8.757136 -120.922571 7.426676 6.456646 118.009134 4.673394 11.807576 20.254123 -4.115405 -22.157709 1.840333 10.300567 -0.55705 -6.174421 6.269658 -0.564929 -10.287349 -154.624063 -4.45226 163.790206 -95.785074 24.552195 60.294505 -30.593523 -19.18542 -156.219852 -158.033297 1.698315 146.067904 2.253194 -1.966717 1.433899 -140.347985 -63.048724 134.678367 -171.09595 -53.43123 120.660222 -167.695929 -9.768278 120.311272 -35.530127 52.572633 27.787638 -6.365999 20.515838 4.349111 -146.584451 6.582089 179.616255 9.589816 26.418863 -12.158954 -122.664094 -33.738869 -107.474272 -138.463071 -8.327078 -117.897958 142.284297 37.50063 -145.762992 12.864236 22.172524 43.54425 -13.481813 -52.505578 99.673143 148.349731 32.302209 -127.027003 96.466059 37.161077 -52.767505 52.769118 -8.316833 -40.109036 170.077481 -52.455686 -125.621809 179.73296 -59.582813 -108.784667 -11.319601 -44.768818 -0.11057 154.638672 -64.80525 -167.240798 148.396055 1.076371 -179.531907 -1.788605 1.008742 14.700788 1.863231 -22.594278 4.825486 167.38231 -3.764368 141.346555 22.782226 4.846843 22.859235 -85.362306 -35.296976 -171.259028 -112.017547 -29.807623 -89.620397 -153.131439 2.779977 -148.304821 163.408665 76.95694 11.649305 -136.896293 4.885668 84.785342 108.082788 -5.126891 85.49147 -90.944712 1.51951 -158.598299
-15.448899999999998 53.5675 -15.154300000000001 -3.47213 76.96917 0.831661 -2.962001 11.552514 -48.988806 10.836476 -6.704832 47.205849 -4.861179 15.005558 -33.427702 25.773417 -12.935673 59.953671 10.443388 -0.652625 -7.132034 6.951312 -0.608327 -9.990605 -156.917847 -36.604569 170.026407 -67.97721 16.088041 21.057533 -164.83684 31.779336 -82.50074 -16.388639 -58.46928 -17.094872 -0.393799 0.341401 1.730839 1.322587 1.987868 -6.13221 -149.485644 -18.801149 122.53765 62.468789 -61.470308 24.100768 -90.756084 62.32314 81.276952 -131.29861 52.877066 119.220051 -73.526336 73.965102 89.275072 -17.712087 62.318428 19.413091 -133.308555 -25.681099 -116.063646 -162.235222 15.700382 -126.600777 141.820889 38.488784 -145.379898 41.594056 -9.881663 42.386331 -15.02791 -9.456289 105.019231 144.575153 36.696379 -123.351579 -4.187647 -7.558639 -0.157759 26.930116 21.320208 -27.070876 -3.744243 -10.382287 6.24776 166.219888 -17.52162 -104.802849 5.788924 1.130781 -1.51261 163.719963 -58.404739 -145.870874 75.586456 72.165839 -90.168783 -3.912263 -44.989084 -0.112392 -5.444111 -4.659764 -3.790928 -0.177605 53.948189 0.796034 -16.836633 -0.401865 -8.213401 -25.481808 -59.46252 -28.957295 -133.574475 76.131645 69.999078 103.794081 42.62554 9.340785 -130.384074 72.176302 -39.534683 -152.970292 11.382987 -98.667144 -101.546292 -1.10008 162.520125 -69.918506 38.80634 -42.697274
-15.5639 53.043099999999995 -15.065700000000001 -3.122447 76.885656 1.289909 -6.906587 11.230722 59.532752 -7.670948 -11.33936 -62.353132 10.107789 15.412828 57.243902 -22.723732 -12.314883 -36.696265 10.667463 -0.713111 -7.627021 7.510479 -0.624078 -9.486634 3.718096 -34.126902 -8.209134 103.945993 33.918795 -89.281641 174.043165 18.094847 42.082401 -130.426992 40.160949 115.861459 -2.808433 2.594575 2.224121 -130.378133 -36.745757 125.430582 -19.108135 27.919586 14.597056 -175.139551 -40.09104 104.017909 -90.58121 62.562988 81.426835 -34.132906 55.86368 26.742973 -2.514636 -1.078882 -1.751197 -75.774547 71.571433 94.503075 0.608252 31.032631 0.471646 -130.287015 -3.351764 -152.874096 15.061479 41.568541 -17.493789 101.966218 45.509286 -58.322894 115.697864 17.380804 140.137333 -161.858016 -87.284425 -144.121407 167.06281 -1.540909 -88.739366 -38.934504 -69.912788 -29.315685 -86.552677 -78.599535 -39.848964 150.045169 -11.620046 -114.576178 165.080231 -4.25193 -142.135322 169.517809 16.461351 -135.773836 69.925112 72.041708 -84.368804 144.613412 59.123488 -146.187933 -10.465189 16.711887 -11.012001 152.095592 -14.897715 116.652666 -17.479378 -0.250128 -8.523518 -24.976267 -61.602028 -110.012076 -110.029142 6.148617 -88.768865 21.179544 39.649084 173.021523 -2.96266 -1.918511 -0.0 67.382561 -43.915222 60.021789 -176.944257 78.595218 86.020484 109.032813 80.807216 -4.21403
-15.7283 52.605900000000005 -15.0084 -2.654766 76.741051 1.934089 -2.998235 11.592043 -49.779138 11.081276 -6.656546 48.031833 12.672008 20.928774 90.504018 -31.165408 4.261451 -66.584769 10.732069 -0.744264 -7.911141 8.052335 -0.599892 -8.507324 -157.281478 -37.404455 169.851858 123.319158 -5.885889 159.733191 -0.280495 -15.735594 104.105614 -15.993915 -52.545333 -14.034693 -174.218584 -11.76024 88.10821 6.726787 -56.656096 18.959562 -173.731469 -59.332201 120.58631 94.055666 -72.485013 45.356643 -168.006997 -32.967857 147.900598 -2.978393 23.78432 4.729318 -56.687421 -69.449433 -70.05956 23.001721 -0.598027 -8.405633 -164.326411 23.999356 -137.626549 -166.485055 8.268593 -144.19817 -5.70081 -44.780778 6.49303 157.522722 -32.366622 -114.364203 -117.310089 30.91468 57.289333 22.85809 9.617962 -2.712654 -91.972153 -50.506676 -41.955364 66.016127 -85.886934 110.812869 44.680141 40.912796 -31.519831 164.428794 -5.195829 -111.584246 4.842359 -0.625557 -0.01739 73.401792 67.348584 -80.131362 71.879412 71.973995 -86.532196 4.371135 17.693689 -6.921704 37.391379 -53.730313 41.298886 118.683915 71.524318 -141.249415 -175.263152 76.527751 -9.319429 151.663429 8.101634 -0.0 -136.839207 67.999821 29.490975 35.453799 19.227026 100.994607 -3.448663 -2.112721 -0.0 70.213642 -43.388521 -0.0 -98.471116 32.538164 71.503292 -150.334343 -22.270776 -39.331413
-15.929199999999998 52.249 -14.9832 -2.231898 76.636453 2.552838 -2.785528 8.830202 -121.522555 7.656148 6.722599 118.614824 -8.037839 18.75142 -53.859932 33.220764 -2.966499 79.123352 10.640492 -0.733782 -7.867383 8.370472 -0.532829 -7.27172 -154.816833 -3.668969 163.101617 -68.039604 5.579155 51.777366 84.616445 -33.554747 -103.996911 -50.362341 38.11564 33.048151 11.667081 -10.762954 1.13877 -35.348472 35.200816 22.072571 -137.891829 1.880898 118.563001 151.793961 -54.947701 95.887432 0.439365 -1.397025 -2.694945 61.125132 -73.473253 37.073896 -147.908151 13.528251 178.494275 89.13863 85.542874 -84.039154 -40.464574 -32.273235 -28.251604 38.923381 35.300292 -7.847449 -5.706654 -46.041294 6.870707 -72.897577 -7.972091 -50.884355 -175.39845 -3.265891 -71.597123 147.364523 33.641144 -126.423091 175.860363 -10.625921 -89.372572 -0.309403 -62.490188 1.981282 163.570718 -36.821691 -125.972256 10.528562 40.553967 -4.3663 100.47758 60.527644 -86.749837 -2.886127 0.255545 -14.846374 147.989945 2.27692 -178.912896 -93.975101 85.803901 89.598049 123.455476 -30.005319 129.980229 -3.963503 39.832838 -40.908793 23.998186 5.951833 24.320948 -91.951902 -32.195753 -2.115069 99.905372 38.800594 -91.183827 -37.379677 -22.812561 -7.775194 -111.250772 65.271798 -51.268047 -162.590552 11.556589 -100.188702 -108.150936 -8.686751 -166.170977 -53.156702 -40.048949 -122.861996
